<?xml version="1.0" encoding="UTF-8"?>
<svg version="1.1" xmlns="http://www.w3.org/2000/svg" width="1536" height="1024">
<path d="M0 0 C506.88 0 1013.76 0 1536 0 C1536 337.92 1536 675.84 1536 1024 C1029.12 1024 522.24 1024 0 1024 C0 686.08 0 348.16 0 0 Z " fill="#FEFEFE" transform="translate(0,0)"/>
<path d="M0 0 C3.67726266 3.03493634 7.02829291 6.33849029 10.35400391 9.75146484 C11.46388672 10.86521484 11.46388672 10.86521484 12.59619141 12.00146484 C27.37619462 27.64411415 35.12267588 49.41679591 43.16891479 69.01000977 C43.82222762 70.60071229 44.47831355 72.19027937 45.13748169 73.77856445 C55.56067371 98.97321244 63.02024903 125.349801 52.35400391 151.75146484 C43.60635982 172.52711955 26.46718691 184.86544228 6.18994141 193.16943359 C5.21879395 193.56461182 5.21879395 193.56461182 4.22802734 193.96777344 C1.39109287 195.15414129 -1.3718609 196.48854469 -4.14599609 197.81396484 C-9.43419619 200.2761612 -14.81675432 202.36167836 -20.28930664 204.36547852 C-25.57381523 206.31411371 -30.77287485 208.4288884 -35.95849609 210.62646484 C-36.74248779 210.9582373 -37.52647949 211.29000977 -38.33422852 211.63183594 C-42.54168969 213.41832541 -46.74035261 215.22431054 -50.93505859 217.04052734 C-51.79703857 217.41064941 -52.65901855 217.78077148 -53.54711914 218.16210938 C-55.20231445 218.87300373 -56.85496455 219.58986232 -58.50463867 220.31347656 C-59.624552 220.79324951 -59.624552 220.79324951 -60.76708984 221.28271484 C-61.4212085 221.56695313 -62.07532715 221.85119141 -62.74926758 222.14404297 C-64.64599609 222.75146484 -64.64599609 222.75146484 -68.64599609 222.75146484 C-69.13253662 221.57269775 -69.61907715 220.39393066 -70.12036133 219.17944336 C-78.82409559 198.09383728 -87.5314773 177.00976886 -96.27099609 155.93896484 C-96.61720001 155.10425659 -96.96340393 154.26954834 -97.32009888 153.4095459 C-99.76160157 147.52332674 -102.20372151 141.63736377 -104.64599609 135.75146484 C-110.31618953 122.08625879 -115.98415547 108.42013412 -121.64599609 94.75146484 C-122.24755524 93.29927551 -122.24755524 93.29927551 -122.86126709 91.81774902 C-125.39982475 85.68889775 -127.93669039 79.55934947 -130.47174072 73.42904663 C-131.27924631 71.47675452 -132.08713132 69.52461929 -132.89544678 67.57266235 C-135.491088 61.30387026 -138.07435025 55.03013752 -140.64599609 48.75146484 C-141.22229767 47.34818939 -141.22229767 47.34818939 -141.8102417 45.91656494 C-142.94757996 43.14123198 -144.07722952 40.3628949 -145.20458984 37.58349609 C-145.55175552 36.73824875 -145.8989212 35.8930014 -146.25660706 35.0221405 C-146.5712944 34.24163834 -146.88598175 33.46113617 -147.21020508 32.65698242 C-147.48847641 31.97283768 -147.76674774 31.28869293 -148.05345154 30.58381653 C-148.64599609 28.75146484 -148.64599609 28.75146484 -148.64599609 25.75146484 C-146.8894991 25.01445369 -145.13298461 24.27748423 -143.37646484 23.54052734 C-142.19826172 23.04617188 -141.02005859 22.55181641 -139.80615234 22.04248047 C-137.11256043 20.91257288 -134.41849843 19.78379505 -131.72412109 18.65576172 C-124.27340213 15.53558903 -116.82623431 12.40742476 -109.38703918 9.25985718 C-105.58143952 7.65058275 -101.77393414 6.04584623 -97.96621704 4.44158936 C-96.10662671 3.65684799 -94.24786127 2.87014864 -92.38998413 2.08135986 C-62.50242777 -10.60409673 -29.13224747 -22.09764366 0 0 Z " fill="#C1CADB" transform="translate(452.64599609375,589.24853515625)"/>
<path d="M0 0 C15.91277917 11.38186778 26.9697231 30.3564196 30.27734375 49.62890625 C30.54703062 53.30055516 30.55742624 56.94881487 30.52734375 60.62890625 C30.53507813 61.57507813 30.5428125 62.52125 30.55078125 63.49609375 C30.51399393 76.77631651 26.04768863 88.40769131 16.6953125 98.0078125 C15.0438609 99.68507259 15.0438609 99.68507259 14.27734375 102.62890625 C14.86741211 102.89678955 15.45748047 103.16467285 16.06542969 103.44067383 C18.29918833 104.64064108 19.840078 105.89502638 21.66796875 107.640625 C22.29098877 108.23012939 22.91400879 108.81963379 23.5559082 109.42700195 C24.20648193 110.05050537 24.85705566 110.67400879 25.52734375 111.31640625 C26.87937122 112.59593721 28.23222663 113.87459392 29.5859375 115.15234375 C30.22901855 115.76045898 30.87209961 116.36857422 31.53466797 116.99511719 C34.09964925 119.39983205 36.73981875 121.70862607 39.40234375 124.00390625 C45.33231413 129.14321392 51.10325202 134.46815044 56.90234375 139.75390625 C60.00223126 142.57593269 63.11375154 145.37851792 66.27734375 148.12890625 C72.77194113 153.77813248 79.2384845 159.49128061 85.27734375 165.62890625 C76.93346567 169.6744229 68.51295352 173.43337188 59.90234375 176.87890625 C59.0834668 177.20761719 58.26458984 177.53632812 57.42089844 177.875 C52.09738528 179.98289612 46.72772569 181.87577351 41.27734375 183.62890625 C34.90749636 178.03283642 28.8361645 172.22355058 22.875 166.1953125 C20.07528388 163.42927718 17.16381987 160.85789504 14.171875 158.3046875 C11.4107405 155.86236441 8.86265564 153.22336364 6.27734375 150.59765625 C4.33843373 148.6890417 2.34034824 146.90180073 0.27734375 145.12890625 C-2.51162018 142.73214037 -5.1425641 140.24931234 -7.72265625 137.62890625 C-14.40220389 130.40287954 -14.40220389 130.40287954 -22.72265625 125.62890625 C-25.55405391 126.43944437 -25.55405391 126.43944437 -28.66015625 127.75390625 C-29.81128906 128.21410156 -30.96242188 128.67429687 -32.1484375 129.1484375 C-36.53554854 130.96561246 -40.90832832 132.8143532 -45.26171875 134.7109375 C-47.72265625 135.62890625 -47.72265625 135.62890625 -50.72265625 135.62890625 C-46.42040787 147.42781989 -41.70145608 159.01141758 -36.78515625 170.56640625 C-34.42352977 176.13369811 -32.06712045 181.70316603 -29.71759033 187.27557373 C-29.0439193 188.86901794 -28.36752719 190.46131401 -27.68865967 192.05255127 C-26.69217585 194.38910753 -25.70464792 196.72927368 -24.71875 199.0703125 C-24.41598648 199.77405502 -24.11322296 200.47779755 -23.80128479 201.2028656 C-22.36623517 204.63463434 -21.72265625 206.84371176 -21.72265625 210.62890625 C-24.58582219 211.82189206 -27.44903686 213.01475888 -30.3125 214.20703125 C-32.4306296 215.09019182 -34.54796919 215.97525272 -36.6640625 216.86328125 C-44.64806495 220.20895847 -52.67862062 223.43107241 -60.72265625 226.62890625 C-64.34885926 218.84669459 -67.69429744 210.96511186 -70.93762207 203.0173645 C-72.46072452 199.28666293 -73.99222928 195.5594117 -75.5234375 191.83203125 C-76.02059769 190.62148827 -76.02059769 190.62148827 -76.52780151 189.38648987 C-80.80827627 178.9738118 -85.14019113 168.5825344 -89.47265625 158.19140625 C-89.89632477 157.1752121 -90.31999329 156.15901794 -90.75650024 155.11203003 C-96.81946398 140.57219393 -102.89147368 126.03613181 -108.97265625 111.50390625 C-109.33989807 110.62629639 -109.70713989 109.74868652 -110.08551025 108.84448242 C-114.08393413 99.29167494 -118.09251387 89.74325734 -122.12109375 80.203125 C-134.408034 51.10594427 -134.408034 51.10594427 -138.72265625 40.44140625 C-139.04314941 39.65773682 -139.36364258 38.87406738 -139.69384766 38.06665039 C-140.88034927 35.09695324 -141.72265625 32.85857277 -141.72265625 29.62890625 C-125.19216179 22.58686307 -108.65068194 15.57107707 -92.07067871 8.64627075 C-90.57549004 8.02159844 -89.08060432 7.39620036 -87.58605957 6.76998901 C-79.49230933 3.38014273 -71.37531343 0.0485397 -63.21875 -3.1875 C-62.50155289 -3.47737289 -61.78435577 -3.76724579 -61.04542542 -4.06590271 C-41.63216415 -11.68772407 -17.75078793 -11.47903466 0 0 Z " fill="#C1CADB" transform="translate(660.72265625,496.37109375)"/>
<path d="M0 0 C1.91488124 2.06565929 3.53673453 4.05082592 5.1875 6.3125 C6.16565905 7.6062312 7.14483857 8.89919144 8.125 10.19140625 C8.6096875 10.8373877 9.094375 11.48336914 9.59375 12.14892578 C11.55996798 14.73709674 13.61713857 17.2447189 15.6875 19.75 C18.38067276 23.02163593 21.05124893 26.30734506 23.6875 29.625 C27.3422541 34.21164359 31.07477312 38.73105362 34.8125 43.25 C39.10992988 48.44882534 43.35651924 53.67763065 47.5 59 C51.5447151 64.19297433 55.68214999 69.30089416 59.875 74.375 C60.75816895 75.44379395 60.75816895 75.44379395 61.65917969 76.53417969 C62.24860352 77.24735352 62.83802734 77.96052734 63.4453125 78.6953125 C71.68894515 88.66970235 79.82686286 98.70391122 87.67578125 108.9921875 C90.5972274 112.77288252 93.62732743 116.45564462 96.66796875 120.140625 C99.23748616 123.29118906 101.74771783 126.48352202 104.25 129.6875 C109.41031582 136.2898842 114.68547001 142.79449023 119.98046875 149.2890625 C123.12938936 153.15270845 126.24621927 157.04113686 129.33984375 160.94921875 C130.86340825 162.83126901 132.45017171 164.63186805 134.0625 166.4375 C134.701875 167.283125 135.34125 168.12875 136 169 C135 172 135 172 132.8737793 173.17919922 C131.94992432 173.55061035 131.02606934 173.92202148 130.07421875 174.3046875 C129.04876953 174.72363281 128.02332031 175.14257812 126.96679688 175.57421875 C125.88462891 176.00347656 124.80246094 176.43273437 123.6875 176.875 C122.64787109 177.29652344 121.60824219 177.71804688 120.53710938 178.15234375 C118.4294431 179.006909 116.31988216 179.8568155 114.20849609 180.70214844 C109.97441985 182.41485193 105.77100448 184.19764906 101.56958008 185.98876953 C99.37900391 186.85084711 97.29583657 187.50197747 95 188 C94.63350342 187.49774902 94.26700684 186.99549805 93.8894043 186.47802734 C92.15800483 184.10845958 90.42338657 181.74128276 88.6875 179.375 C88.05827637 178.51720947 87.42905273 177.65941895 86.78076172 176.77563477 C82.38313205 170.80789913 77.88458644 164.93802863 73.2019043 159.19091797 C70 155.21023771 70 155.21023771 70 153 C64.33248785 155.28957947 58.66600251 157.58168736 53 159.875 C52.16197845 160.21403351 51.32395691 160.55306702 50.46054077 160.90237427 C38.88330597 165.58785224 27.3270591 170.31532281 15.83398438 175.20458984 C14.94646484 175.57922363 14.05894531 175.95385742 13.14453125 176.33984375 C12.38503174 176.66331787 11.62553223 176.98679199 10.84301758 177.32006836 C9 178 9 178 7 178 C7.47852691 182.1667404 7.95793706 186.33337873 8.4375 190.5 C8.57220703 191.67304687 8.70691406 192.84609375 8.84570312 194.0546875 C8.97783203 195.20195313 9.10996094 196.34921875 9.24609375 197.53125 C9.37491943 198.65144531 9.50374512 199.77164063 9.63647461 200.92578125 C9.93422576 203.44376814 10.2566047 205.95586579 10.59375 208.46875 C11.15327121 213.33228054 11.06106848 218.11452185 11 223 C2.73984388 226.84264446 -5.624696 230.37962917 -14.0625 233.8125 C-15.29627023 234.31954888 -16.52999443 234.82670978 -17.76367188 235.33398438 C-18.92576172 235.80771484 -20.08785156 236.28144531 -21.28515625 236.76953125 C-22.86115601 237.41305542 -22.86115601 237.41305542 -24.46899414 238.06958008 C-27 239 -27 239 -29 239 C-31.94009409 207.09694695 -34.79061586 175.19467833 -37.19140625 143.24609375 C-37.27072419 142.19080097 -37.27072419 142.19080097 -37.35164452 141.11418915 C-37.84492093 134.54940083 -38.33751997 127.98456185 -38.82870483 121.4196167 C-40.12039251 104.16736345 -41.46715363 86.92585923 -43.11279297 69.703125 C-43.88235028 61.59395716 -44.45096293 53.5018209 -44.7890625 45.36328125 C-44.93043155 42.06733971 -44.93043155 42.06733971 -45.51953125 39.12890625 C-46.1621847 34.94382157 -46.10631268 30.85123851 -46.0625 26.625 C-46.05798828 25.79355469 -46.05347656 24.96210938 -46.04882812 24.10546875 C-46.03713164 22.07028103 -46.01919935 20.03513077 -46 18 C-40.71307896 15.30114425 -35.40522167 12.8168342 -29.921875 10.546875 C-29.18801575 10.24179016 -28.45415649 9.93670532 -27.69805908 9.62237549 C-26.16264983 8.98558281 -24.62656994 8.35040489 -23.08984375 7.71679688 C-20.73911649 6.74550306 -18.39302445 5.7635411 -16.046875 4.78125 C-14.54714673 4.1608011 -13.04715582 3.54098661 -11.546875 2.921875 C-10.84890808 2.62819031 -10.15094116 2.33450562 -9.43182373 2.03192139 C-6.00545455 0.6323383 -3.76421229 0 0 0 Z " fill="#C0CADB" transform="translate(822,403)"/>
<path d="M0 0 C1.53710324 3.6958009 3.06672944 7.39460268 4.58984375 11.09619141 C5.10771308 12.35189571 5.627528 13.60679962 6.14941406 14.86083984 C8.91203778 21.50278 11.53589058 27.94405101 13 35 C12.24493164 35.30703857 11.48986328 35.61407715 10.71191406 35.93041992 C7.84895593 37.09489075 4.98618668 38.25982448 2.12353516 39.42504883 C0.29994505 40.16717443 -1.5238527 40.90878972 -3.34765625 41.65039062 C-17.92934956 47.49457851 -17.92934956 47.49457851 -32.25 53.9375 C-37.77687016 56.51891241 -43.37556185 58.71508607 -49.09936523 60.80688477 C-54.36119449 62.73381483 -59.5119226 64.86591915 -64.64453125 67.1171875 C-67 68 -67 68 -70 68 C-69.64284912 68.85005615 -69.28569824 69.7001123 -68.91772461 70.57592773 C-65.19819486 79.43100927 -61.48448942 88.28851345 -57.77563477 97.14807129 C-57.08355232 98.80050799 -56.39047707 100.45252879 -55.69726562 102.10449219 C-54.69040167 104.50567822 -53.68787226 106.90860409 -52.6875 109.3125 C-52.40447021 109.98531006 -52.12144043 110.65812012 -51.82983398 111.35131836 C-50 115.76952494 -50 115.76952494 -50 118 C-48.91332031 117.52433594 -47.82664062 117.04867187 -46.70703125 116.55859375 C-34.50177578 111.25562964 -22.20505186 106.19167302 -9.875 101.1875 C-8.67383041 100.69888992 -8.67383041 100.69888992 -7.44839478 100.20040894 C1.31212584 96.63918253 10.0717782 93.12524545 19 90 C22.34059395 97.0750376 25.38012576 104.24719161 28.3125 111.5 C28.67408203 112.38461914 29.03566406 113.26923828 29.40820312 114.18066406 C29.74400391 115.01823242 30.07980469 115.85580078 30.42578125 116.71875 C30.72911377 117.47091797 31.03244629 118.22308594 31.3449707 118.99804688 C32 121 32 121 32 124 C20.95328077 128.79361382 9.83515877 133.4082263 -1.30566406 137.97827148 C-3.27657116 138.78771617 -5.24661849 139.59925734 -7.21582031 140.4128418 C-10.10554067 141.60668205 -12.99777392 142.79423804 -15.890625 143.98046875 C-16.75753967 144.33989059 -17.62445435 144.69931244 -18.51763916 145.06962585 C-24.25483323 147.41117744 -30.0349923 149.32344076 -36 151 C-35.69938156 151.72377335 -35.39876312 152.44754669 -35.08903503 153.19325256 C-32.37351019 159.73233326 -29.66668328 166.2749722 -26.96543884 172.81996155 C-25.20715116 177.07968652 -23.44589607 181.33816001 -21.68115234 185.59521484 C-19.62750144 190.55028658 -17.58075075 195.50816699 -15.53778076 200.46765137 C-14.72249582 202.44374775 -13.90499845 204.41893283 -13.08526611 206.39318848 C-11.92202889 209.19592674 -10.7668057 212.00184661 -9.61328125 214.80859375 C-9.08748726 216.06792976 -9.08748726 216.06792976 -8.55107117 217.35270691 C-6.82699347 221.57137044 -5.51654666 225.43019492 -5 230 C-5.77525024 230.30852905 -5.77525024 230.30852905 -6.56616211 230.62329102 C-8.12772064 231.24519028 -9.68906047 231.86763883 -11.25024414 232.49047852 C-13.05241681 233.20941557 -14.85499366 233.92734021 -16.65795898 234.64428711 C-21.12758706 236.42733525 -25.58271974 238.23384391 -30.0078125 240.125 C-30.77746338 240.45169678 -31.54711426 240.77839355 -32.34008789 241.11499023 C-33.79842607 241.73674246 -35.253498 242.36622413 -36.70483398 243.00415039 C-41.66686245 245.11104585 -41.66686245 245.11104585 -45 244 C-46.17236328 241.78320312 -46.17236328 241.78320312 -47.3203125 238.78125 C-47.76415283 237.64292725 -48.20799316 236.50460449 -48.6652832 235.33178711 C-48.90155426 234.71125458 -49.13782532 234.09072205 -49.3812561 233.4513855 C-50.68436782 230.03236813 -52.02659865 226.62865616 -53.36328125 223.22265625 C-53.65093857 222.48688858 -53.93859589 221.75112091 -54.23497009 220.99305725 C-57.79364554 211.91932839 -61.55978861 202.93223322 -65.3125 193.9375 C-70.47118089 181.55450982 -75.57507931 169.152407 -80.58547974 156.7086792 C-85.69583943 144.01727902 -90.92593704 131.38638149 -96.30767822 118.80752563 C-102.45545866 104.43616161 -108.54179352 90.04037492 -114.46563721 75.57504272 C-115.2341038 73.70250467 -116.0064816 71.83156661 -116.78289795 69.96231079 C-117.85849104 67.36986239 -118.91942981 64.77189545 -119.9765625 62.171875 C-120.4610788 61.01539711 -120.4610788 61.01539711 -120.9553833 59.83555603 C-123.45746914 53.60248184 -123.45746914 53.60248184 -122 50 C-119.66218165 48.69048908 -117.50604033 47.68632269 -115.03125 46.70703125 C-114.30145432 46.40408142 -113.57165863 46.10113159 -112.81974792 45.78900146 C-110.38547796 44.7824597 -107.94296301 43.7977343 -105.5 42.8125 C-103.77779896 42.10489943 -102.05621026 41.39580687 -100.33520508 40.68530273 C-96.71828775 39.1945661 -93.09808482 37.71225032 -89.47509766 36.23632812 C-84.23859613 34.10119283 -79.01389801 31.93852034 -73.79296875 29.765625 C-67.0343355 26.95342175 -60.27285224 24.14832063 -53.5078125 21.3515625 C-47.10025322 18.70197887 -40.69703595 16.04224927 -34.29820251 13.37165833 C-30.47519393 11.77617564 -26.65114668 10.18319068 -22.82705688 8.59030151 C-20.9930258 7.82552296 -19.15950344 7.05952323 -17.32650757 6.29226685 C-14.79319994 5.2320364 -12.25814337 4.17609914 -9.72265625 3.12109375 C-8.96640961 2.80324921 -8.21016296 2.48540466 -7.43099976 2.15792847 C-2.22774553 0 -2.22774553 0 0 0 Z " fill="#C1CADB" transform="translate(1057,306)"/>
<path d="M0 0 C0.99 3.3 1.98 6.6 3 10 C2.2881958 10.29422852 1.5763916 10.58845703 0.84301758 10.89160156 C-5.74330621 13.62375371 -12.30034501 16.41653386 -18.84375 19.24975586 C-30.73577308 24.39308932 -42.68374025 29.32133214 -54.78125 33.96484375 C-59.51468709 35.78984821 -64.19159256 37.73652402 -68.86962891 39.69848633 C-74.3679444 41.9845197 -79.90499103 44.17333706 -85.4375 46.375 C-113.38210359 57.51932132 -141.23485404 68.89353456 -169.08935547 80.26074219 C-184.97152658 86.74193116 -200.86773113 93.18782389 -216.76965332 99.62036133 C-228.49721397 104.3645252 -240.22024459 109.11927376 -251.93359375 113.8984375 C-261.44998839 117.77981713 -270.97470106 121.64054102 -280.5 125.5 C-291.69036311 130.03464201 -302.87957398 134.57204201 -314.0625 139.125 C-315.10664062 139.54974609 -316.15078125 139.97449219 -317.2265625 140.41210938 C-322.04632167 142.37583133 -326.85880716 144.35494598 -331.66015625 146.36328125 C-339.54177175 149.65373268 -347.45892374 152.85609987 -355.375 156.0625 C-356.19066437 156.39313446 -357.00632874 156.72376892 -357.84671021 157.06442261 C-368.198609 161.26022845 -378.56039667 165.42939988 -388.9375 169.5625 C-403.6974096 175.44507266 -418.41064275 181.4420829 -433.125 187.4375 C-434.31551971 187.92243927 -435.50603943 188.40737854 -436.7326355 188.90701294 C-440.17880192 190.3110353 -443.62463277 191.71587743 -447.0703125 193.12109375 C-448.09432663 193.53841766 -449.11834076 193.95574158 -450.17338562 194.38571167 C-456.21725991 196.85232534 -462.24783052 199.34909941 -468.27178955 201.86393738 C-471.72235516 203.30079816 -475.18154249 204.71442417 -478.64453125 206.12109375 C-479.30225021 206.38833755 -479.95996918 206.65558136 -480.63761902 206.93092346 C-482.00936516 207.4881442 -483.38121661 208.0451058 -484.75317383 208.60180664 C-486.79992969 209.43239885 -488.84627848 210.26398767 -490.89257812 211.09570312 C-497.50789361 213.78269437 -504.12893577 216.45406644 -510.76171875 219.09765625 C-516.02408151 221.19665251 -521.26133021 223.34948396 -526.48681641 225.53857422 C-533.98967199 228.65963701 -541.52051947 231.71305354 -549.0451355 234.78118896 C-552.26016869 236.09213093 -555.47496103 237.40366202 -558.68969727 238.71533203 C-567.63584863 242.36535687 -576.58248289 246.01419734 -585.52929688 249.66259766 C-616.43643317 262.26503618 -616.43643317 262.26503618 -647.31021118 274.94888306 C-659.57380788 280.0063357 -671.84735723 285.03924422 -684.125 290.0625 C-685.05904663 290.44475739 -685.99309326 290.82701477 -686.95544434 291.22085571 C-696.47330523 295.11549424 -705.99385338 299.00313242 -715.52734375 302.859375 C-716.26351929 303.1573851 -716.99969482 303.4553952 -717.75817871 303.76243591 C-721.13523256 305.12932169 -724.51314096 306.49399001 -727.89306641 307.85375977 C-733.10607655 309.96107876 -738.27678132 312.09933887 -743.37109375 314.48046875 C-748.35204276 316.78052057 -753.44515373 318.70348884 -758.58876038 320.59916687 C-766.93654705 323.68937527 -775.14927382 327.1010535 -783.375 330.5 C-785.07332377 331.19990405 -786.77173021 331.89960751 -788.47021484 332.59912109 C-791.07349895 333.67147237 -793.67664366 334.74415494 -796.27932739 335.81796265 C-802.06233325 338.20382029 -807.85008295 340.57781213 -813.640625 342.9453125 C-815.91330635 343.8759313 -818.18584874 344.80688832 -820.45831299 345.73803711 C-821.87716973 346.31886547 -823.29638677 346.89881464 -824.71600342 347.4777832 C-832.64070352 350.71099418 -840.46072027 354.10129248 -848.21630859 357.72705078 C-851.44136087 359.20182911 -854.65692813 360.44367412 -858 361.625 C-869.37350239 365.77072012 -880.50099468 370.54066389 -891.671875 375.19726562 C-898.73460274 378.1404728 -905.8035612 381.06868096 -912.87173462 383.9987793 C-915.45846212 385.07119052 -918.04503787 386.14396708 -920.6315918 387.21679688 C-933.99947928 392.76060904 -947.37360633 398.28924732 -960.75 403.8125 C-961.73180237 404.21790009 -962.71360474 404.62330017 -963.72515869 405.04098511 C-967.56259043 406.6254902 -971.40003199 408.20997152 -975.23748779 409.79441833 C-987.49472489 414.85553996 -999.74872143 419.92447031 -1012 425 C-1012.76699219 425.31775391 -1013.53398438 425.63550781 -1014.32421875 425.96289062 C-1041.42798634 437.19147312 -1041.42798634 437.19147312 -1068.51293945 448.46533203 C-1077.39468959 452.16927785 -1086.28721291 455.84713276 -1095.18164062 459.52050781 C-1101.08067647 461.9581651 -1106.97537711 464.40514573 -1112.859375 466.87890625 C-1113.93896484 467.33201172 -1115.01855469 467.78511719 -1116.13085938 468.25195312 C-1118.13854778 469.09550912 -1120.14514984 469.94165774 -1122.15039062 470.79101562 C-1127.69591471 473.11910806 -1133.26198104 475.19564137 -1139 477 C-1142 470.5 -1142 470.5 -1142 466 C-1141.13463623 465.63986816 -1140.26927246 465.27973633 -1139.37768555 464.90869141 C-1121.07703098 457.29174669 -1102.78348623 449.65806818 -1084.5 442 C-1042.96196254 424.60364108 -1001.3701701 407.33783267 -959.74157715 390.15933228 C-947.10809785 384.94549248 -934.48552963 379.70657902 -921.875 374.4375 C-907.67313879 368.5036105 -893.43282992 362.66647888 -879.18252563 356.8500061 C-866.45633134 351.6545989 -853.74700866 346.42139121 -841.0625 341.125 C-839.94911255 340.66016708 -839.94911255 340.66016708 -838.81323242 340.1859436 C-835.90577738 338.97194341 -832.99842428 337.75769957 -830.09121704 336.54310608 C-808.47268296 327.51248914 -786.79324008 318.63194743 -765.10600281 309.76800537 C-754.36913976 305.37955603 -743.63629298 300.9814305 -732.90634155 296.57611084 C-720.50805416 291.48585364 -708.10554858 286.40647988 -695.69140625 281.35498047 C-684.93554888 276.97696008 -674.18594798 272.58367551 -663.4375 268.1875 C-662.48819611 267.79924042 -661.53889221 267.41098083 -660.56082153 267.01095581 C-648.11667131 261.9205456 -635.67951978 256.81351959 -623.25 251.6875 C-611.65778286 246.90747355 -600.0514087 242.16352396 -588.43139648 237.45141602 C-576.23632559 232.50575905 -564.04958398 227.53975605 -551.86334229 222.5723877 C-534.47725803 215.48550453 -517.08768509 208.40763649 -499.68432617 201.36328125 C-487.21437732 196.31469645 -474.76167622 191.2245662 -462.3125 186.125 C-447.74160326 180.15657296 -433.1599869 174.21560717 -418.5625 168.3125 C-417.69318848 167.96093842 -416.82387695 167.60937683 -415.92822266 167.24716187 C-411.61704324 165.50384423 -407.30565159 163.76105218 -402.99414062 162.01855469 C-382.83178568 153.86970884 -362.67787499 145.70173728 -342.5625 137.4375 C-280.3929277 111.8967833 -280.3929277 111.8967833 -249.34960938 99.54711914 C-235.37141259 93.97379661 -221.45094365 88.25831476 -207.52124023 82.56518555 C-194.93763593 77.42238929 -182.34966907 72.2908192 -169.75 67.1875 C-169.00711731 66.88659454 -168.26423462 66.58568909 -167.49884033 66.27566528 C-164.53490205 65.07523841 -161.57088922 63.87499592 -158.60675049 62.67506409 C-153.39465938 60.56511341 -148.18341083 58.45309286 -142.97265625 56.33984375 C-142.21998978 56.03460281 -141.4673233 55.72936188 -140.69184875 55.41487122 C-139.16418402 54.79533013 -137.63651984 54.17578768 -136.1088562 53.5562439 C-122.86956977 48.18730128 -109.62763521 42.82492697 -96.38421631 37.46618652 C-83.78957238 32.36994941 -71.19583895 27.27155576 -58.60916138 22.15567017 C-56.7077587 21.38323005 -54.80596073 20.61177114 -52.90405273 19.84057617 C-46.44197099 17.21912209 -39.985263 14.58534458 -33.53669739 11.93078613 C-30.11283525 10.52247032 -26.68675887 9.11959078 -23.26040649 7.71734619 C-21.59934746 7.03592853 -19.93931374 6.35200562 -18.28036499 5.66546631 C-15.97591833 4.71202934 -13.66810114 3.76723621 -11.359375 2.82421875 C-10.67239029 2.53742752 -9.98540558 2.25063629 -9.27760315 1.95515442 C-5.89829683 0.58497377 -3.71418396 0 0 0 Z " fill="#B8C4D7" transform="translate(1309,123)"/>
<path d="M0 0 C0.99 3.3 1.98 6.6 3 10 C-7.95813295 14.56634252 -18.9162771 19.13265703 -29.87564087 23.69604492 C-49.82136119 32.00128087 -69.76601437 40.30870396 -89.68701172 48.6730957 C-100.22375668 53.09684804 -110.77006816 57.49742048 -121.32202148 61.88476562 C-123.14007306 62.64188657 -124.95726577 63.40107254 -126.77368164 64.16210938 C-132.43001747 66.52927949 -138.1000258 68.85932437 -143.78515625 71.15625 C-144.45967331 71.428927 -145.13419037 71.701604 -145.82914734 71.98254395 C-148.60469336 73.10418235 -151.38038603 74.2254374 -154.1574707 75.34326172 C-161.6983644 78.38008822 -169.18345811 81.48502946 -176.56518555 84.89599609 C-180.28469259 86.58251077 -184.07272268 88.07452828 -187.875 89.5625 C-218.68185954 101.77026439 -249.16132422 114.83041851 -279.71380615 127.65786743 C-283.53700622 129.26275837 -287.36072785 130.86640443 -291.18450928 132.46990967 C-292.980712 133.2235542 -294.7766631 133.97779879 -296.57232666 134.73272705 C-306.70331297 138.99192166 -316.86180145 143.16719223 -327.07174683 147.2336731 C-333.40897543 149.75856296 -339.71713801 152.34232116 -346 155 C-346.76528015 155.32371582 -347.5305603 155.64743164 -348.31903076 155.98095703 C-353.0184725 157.96932227 -357.71724188 159.95927556 -362.41601562 161.94921875 C-363.40641846 162.36864746 -364.39682129 162.78807617 -365.41723633 163.22021484 C-367.42922771 164.07276183 -369.44094708 164.92595105 -371.45239258 165.77978516 C-381.3358963 169.97425164 -391.20659474 174.13588682 -401.25366211 177.92407227 C-403.86649224 178.94769591 -406.40070011 180.06422995 -408.9453125 181.24609375 C-418.1176055 185.49767846 -427.52648299 189.21958176 -436.875 193.0625 C-438.96192112 193.92214861 -441.04875306 194.78201375 -443.13549805 195.64208984 C-447.24640747 197.33626971 -451.35766188 199.02960745 -455.46923828 200.72216797 C-462.25349166 203.51548082 -469.0338032 206.31823097 -475.8125 209.125 C-476.9156958 209.58165039 -478.0188916 210.03830078 -479.15551758 210.50878906 C-482.77052091 212.00543499 -486.38529088 213.5026437 -490 215 C-490.73871338 215.30597107 -491.47742676 215.61194214 -492.23852539 215.92718506 C-517.17167048 226.25452705 -542.09204696 236.61205833 -567 247 C-573.14562359 249.56300326 -579.29141821 252.12559569 -585.4375 254.6875 C-586.1900708 255.00122559 -586.9426416 255.31495117 -587.71801758 255.63818359 C-598.91613896 260.30577791 -610.12375406 264.94980409 -621.3371582 269.58056641 C-630.76551465 273.47857124 -640.17260697 277.42596938 -649.57601929 281.38363647 C-659.96014883 285.75231707 -670.37615506 290.03432272 -680.83447266 294.22290039 C-686.05417454 296.32791256 -691.18569579 298.53360473 -696.2734375 300.94140625 C-700.90071267 303.10368116 -705.56837713 305.02121824 -710.36328125 306.7734375 C-721.11387251 310.7080749 -731.63312247 315.1968243 -742.1875 319.625 C-744.33237516 320.52223647 -746.477396 321.41912478 -748.62255859 322.31567383 C-752.83876213 324.07786175 -757.05454214 325.84105626 -761.27001953 327.60498047 C-768.5482342 330.64890845 -775.83445335 333.67324615 -783.125 336.6875 C-784.81616943 337.38685669 -784.81616943 337.38685669 -786.54150391 338.1003418 C-794.55456755 341.4103452 -802.57548267 344.70105288 -810.60400391 347.97338867 C-816.02859384 350.18560596 -821.43957175 352.42894957 -826.84594727 354.68530273 C-832.37191629 356.98868095 -837.90509964 359.27462233 -843.4375 361.5625 C-845.35896443 362.35725145 -847.28041227 363.15204298 -849.20185852 363.94683838 C-850.51800268 364.49125009 -851.83415465 365.03564291 -853.15031433 365.58001709 C-857.48087166 367.37126034 -861.81089693 369.1637842 -866.140625 370.95703125 C-868.48956482 371.92973221 -870.83852325 372.90238823 -873.1875 373.875 C-874.37964111 374.36863037 -875.57178223 374.86226074 -876.80004883 375.37084961 C-883.15376587 378.00010498 -889.51014991 380.62265034 -895.87109375 383.234375 C-911.72906391 389.7469352 -927.56402858 396.31155745 -943.375 402.9375 C-944.28252014 403.31780365 -945.19004028 403.6981073 -946.12506104 404.0899353 C-949.76723817 405.61632472 -953.40935751 407.14285199 -957.05142212 408.66950989 C-978.72453571 417.75331304 -1000.40815938 426.80616902 -1022.1875 435.6328125 C-1027.21068252 437.67147467 -1032.21669225 439.74946578 -1037.21875 441.83935547 C-1041.63486488 443.68224611 -1046.0617107 445.49881638 -1050.48828125 447.31640625 C-1054.51658597 448.9724015 -1058.53918958 450.64140347 -1062.55810547 452.32006836 C-1068.54119643 454.81375246 -1074.53719279 457.27457314 -1080.5390625 459.72265625 C-1082.10942764 460.36369545 -1082.10942764 460.36369545 -1083.71151733 461.01768494 C-1085.90459686 461.91279961 -1088.09776386 462.80770002 -1090.29101562 463.70239258 C-1093.62394099 465.06206797 -1096.95652109 466.42258696 -1100.2890625 467.78320312 C-1102.43487536 468.65890435 -1104.58070802 469.53455704 -1106.7265625 470.41015625 C-1108.20039902 471.01187401 -1108.20039902 471.01187401 -1109.70401001 471.62574768 C-1111.56682517 472.38544097 -1113.43021413 473.14372921 -1115.29425049 473.90042114 C-1117.14912852 474.6542177 -1119.00219426 475.41248477 -1120.85369873 476.17453003 C-1122.20301483 476.72513596 -1122.20301483 476.72513596 -1123.57958984 477.28686523 C-1124.38278656 477.61669907 -1125.18598328 477.9465329 -1126.01351929 478.28636169 C-1128 479 -1128 479 -1130 479 C-1130.99 475.7 -1131.98 472.4 -1133 469 C-1124.3760481 464.9243342 -1115.6699712 461.13643986 -1106.83712769 457.53793335 C-1103.1141868 456.02096191 -1099.39541201 454.49381532 -1095.67578125 452.96875 C-1094.89106949 452.64734543 -1094.10635773 452.32594086 -1093.29786682 451.99479675 C-1084.16638296 448.25310794 -1075.05195219 444.47044037 -1065.9375 440.6875 C-1064.20924172 439.97050854 -1062.48097016 439.25354908 -1060.75268555 438.53662109 C-1055.50159579 436.35821618 -1050.2507735 434.17916708 -1045 432 C-1038.0210628 429.10361336 -1031.0419554 426.20763772 -1024.0625 423.3125 C-1023.20390381 422.95631592 -1022.34530762 422.60013184 -1021.46069336 422.2331543 C-1010.80201223 417.81203579 -1000.13725204 413.40615933 -989.46401978 409.02029419 C-969.03097355 400.62337531 -948.64440521 392.11530817 -928.25634766 383.60986328 C-918.02593314 379.3419933 -907.79445179 375.07668304 -897.5625 370.8125 C-896.56481598 370.39670685 -895.56713196 369.9809137 -894.53921509 369.55252075 C-876.54057849 362.0521924 -858.53157622 354.57706617 -840.51701355 347.11508179 C-834.57912742 344.65518907 -828.64278967 342.19158439 -822.70703125 339.7265625 C-806.82977123 333.13432827 -790.94618176 326.55915158 -775.03518677 320.04870605 C-759.74296212 313.79139656 -744.48631999 307.45395919 -729.25076294 301.05993652 C-715.04060049 295.09706364 -700.80924046 289.18742773 -686.5625 283.3125 C-672.31297265 277.43628875 -658.07207272 271.54069014 -643.84860229 265.60168457 C-631.94222711 260.63108969 -620.01878246 255.70267778 -608.09042358 250.78509521 C-592.16080533 244.21757644 -576.25242502 237.60423051 -560.37973022 230.90029907 C-541.29205803 222.83966683 -522.14776351 214.91660481 -503 207 C-501.65299395 206.44303588 -500.3059887 205.88606985 -498.95898438 205.32910156 C-498.02268692 204.94196739 -498.02268692 204.94196739 -497.06747437 204.54701233 C-494.10744512 203.32309959 -491.14746794 202.09906097 -488.1875 200.875 C-487.04265137 200.40167236 -485.89780273 199.92834473 -484.71826172 199.44067383 C-474.74068833 195.31276852 -464.77547367 191.15548041 -454.81027222 186.99783325 C-441.80272962 181.57220396 -428.77869707 176.1871038 -415.75 170.8125 C-399.61250228 164.15486013 -383.48761703 157.46763678 -367.375 150.75 C-366.3678595 150.3301181 -365.36071899 149.91023621 -364.32305908 149.47763062 C-355.86245881 145.94998155 -347.40276612 142.42015849 -338.94335938 138.88964844 C-334.33750511 136.96746207 -329.73141079 135.04585233 -325.125 133.125 C-324.3996405 132.82251343 -323.67428101 132.52002686 -322.92694092 132.20837402 C-311.59447258 127.48394678 -300.2456389 122.80016188 -288.88964844 118.13259888 C-277.95605525 113.63796913 -267.03573184 109.11234199 -256.125 104.5625 C-255.00094757 104.09378479 -255.00094757 104.09378479 -253.85418701 103.61560059 C-247.84055981 101.10765001 -241.82768485 98.59789805 -235.81494141 96.08782959 C-230.75200323 93.97431868 -225.68874675 91.86157296 -220.625 89.75 C-219.53569183 89.29574142 -219.53569183 89.29574142 -218.42437744 88.83230591 C-204.3082682 82.94745767 -190.17257082 77.1103473 -176.03527832 71.27661133 C-158.78743686 64.15868064 -141.55789147 56.9978639 -124.33886719 49.81054688 C-119.90629316 47.96057277 -115.47279661 46.11281681 -111.0390625 44.265625 C-110.29423111 43.95530838 -109.54939972 43.64499176 -108.78199768 43.32527161 C-105.76944754 42.07022041 -102.75686018 40.81525858 -99.74423218 39.56039429 C-92.27083547 36.44744899 -84.79766849 33.33397491 -77.32746887 30.21336365 C-57.16624845 21.79131463 -36.97381126 13.44818497 -16.75390625 5.16796875 C-16.04100433 4.87596588 -15.32810242 4.58396301 -14.59359741 4.28311157 C-12.72971372 3.52048681 -10.864898 2.76014103 -9 2 C-7.64636353 1.40699097 -7.64636353 1.40699097 -6.26538086 0.80200195 C-4 0 -4 0 0 0 Z " fill="#B8C4D7" transform="translate(1427,450)"/>
<path d="M0 0 C1.10756894 2.261018 2.01796722 4.42033688 2.8828125 6.7734375 C3.14254852 7.45298492 3.40228455 8.13253235 3.66989136 8.83267212 C4.49898524 11.00955471 5.31203569 13.19204918 6.125 15.375 C6.67996097 16.83893202 7.2359385 18.3024791 7.79296875 19.765625 C11.5885383 29.76561491 11.5885383 29.76561491 13 34 C1.26806747 39.07851518 -10.48603452 44.08167795 -22.36181641 48.81616211 C-28.40241939 51.25166848 -34.2158433 54.00694072 -40 57 C-27.78035986 87.73713931 -15.25406747 118.34361544 -2.59082031 148.90039062 C1.39518829 158.52402412 5.3593023 168.15657247 9.31494141 177.79272461 C10.00872345 179.48275978 10.70272521 181.17270478 11.39697266 182.86254883 C13.30427455 187.50570398 15.20729038 192.15056711 17.10241699 196.79870605 C17.70519017 198.27698821 18.30879925 199.75492976 18.91320801 201.23254395 C19.77136461 203.3332337 20.62471315 205.43580855 21.4765625 207.5390625 C21.96463379 208.73998535 22.45270508 209.9409082 22.95556641 211.17822266 C24 214 24 214 24 216 C23.45698242 216.21615967 22.91396484 216.43231934 22.35449219 216.6550293 C8.34514189 222.23242828 8.34514189 222.23242828 -5.58984375 227.9921875 C-6.78287109 228.49105469 -6.78287109 228.49105469 -8 229 C-8.86753906 229.37382812 -9.73507812 229.74765625 -10.62890625 230.1328125 C-13 231 -13 231 -16 231 C-16.25467041 230.34032227 -16.50934082 229.68064453 -16.77172852 229.00097656 C-24.54698675 208.91389268 -32.74994015 189.02165106 -41.09118652 169.16400146 C-42.50230913 165.80393754 -43.91124328 162.44295666 -45.3203125 159.08203125 C-46.90525659 155.30219674 -48.49047656 151.52247861 -50.07666016 147.74316406 C-56.47218084 132.50281092 -62.83424604 117.24857624 -69.17468262 101.98522949 C-69.95544426 100.10717498 -70.73792417 98.22983508 -71.52050781 96.35253906 C-72.80993265 93.25773873 -74.09360088 90.16063006 -75.375 87.0625 C-75.73819336 86.19359131 -76.10138672 85.32468262 -76.47558594 84.42944336 C-76.80075195 83.63932861 -77.12591797 82.84921387 -77.4609375 82.03515625 C-77.73728027 81.3687915 -78.01362305 80.70242676 -78.29833984 80.01586914 C-79.10287766 77.70443256 -79.56771288 75.40632863 -80 73 C-81.0422876 73.42297363 -82.0845752 73.84594727 -83.15844727 74.28173828 C-87.10019057 75.88123228 -91.04213352 77.48023375 -94.98413086 79.07910156 C-96.67624095 79.76549486 -98.36829995 80.45201411 -100.06030273 81.13867188 C-104.93011958 83.11491318 -109.8012294 85.08791397 -114.67364502 87.05773926 C-116.94771054 87.97882081 -119.21981138 88.90461724 -121.49169922 89.83105469 C-122.85768642 90.38491603 -124.22373127 90.93863523 -125.58984375 91.4921875 C-126.78343506 91.97800293 -127.97702637 92.46381836 -129.20678711 92.96435547 C-132 94 -132 94 -134 94 C-135.69892783 89.98324103 -137.38929215 85.96301603 -139.07202148 81.93945312 C-139.6449101 80.5729239 -140.22007386 79.20734607 -140.79760742 77.84277344 C-141.63028183 75.87424205 -142.45454781 73.90236481 -143.27734375 71.9296875 C-144.02359009 70.15440674 -144.02359009 70.15440674 -144.78491211 68.34326172 C-145.92825627 65.19739978 -146.57448758 62.31150079 -147 59 C-139.15165582 55.33018182 -131.190601 51.98608386 -123.15420532 48.75387573 C-119.61750145 47.3310137 -116.08426378 45.89958894 -112.55078125 44.46875 C-111.83192245 44.17781967 -111.11306366 43.88688934 -110.37242126 43.58714294 C-99.7476111 39.28305709 -89.16423097 34.87859074 -78.57666016 30.48388672 C-72.55296303 27.98477197 -66.52629493 25.49284219 -60.5 23 C-58.10286268 22.00781711 -55.70572726 21.0156296 -53.30859375 20.0234375 C-48.93290253 18.21268446 -44.55654607 16.4035604 -40.17922974 14.59674072 C-37.59422695 13.52964538 -35.00950657 12.46186692 -32.42480469 11.39404297 C-30.63894383 10.65656765 -28.85268386 9.92005905 -27.06640625 9.18359375 C-25.95265625 8.72339844 -24.83890625 8.26320312 -23.69140625 7.7890625 C-22.60359863 7.34079102 -21.51579102 6.89251953 -20.39501953 6.43066406 C-17.96403975 5.40624715 -15.55375153 4.36043572 -13.14794922 3.28027344 C-12.51155014 2.99759613 -11.87515106 2.71491882 -11.21946716 2.42367554 C-9.43593439 1.62876458 -7.65715028 0.82322408 -5.87866211 0.01708984 C-3 -1 -3 -1 0 0 Z " fill="#C1CADB" transform="translate(1245,230)"/>
<path d="M0 0 C2.00390625 1.13671875 2.00390625 1.13671875 3.9375 2.4375 C4.66839844 2.87707031 5.39929688 3.31664062 6.15234375 3.76953125 C23.70408579 15.6207075 31.36701875 42.62252425 38.875 61.4375 C39.29682556 62.484254 39.29682556 62.484254 39.72717285 63.55215454 C45.51567902 77.97524609 52.15539981 95.08799853 45.9375 110.4375 C39.88108913 123.3920602 30.00894128 128.25258155 17.34423828 133.43701172 C14.66144199 134.55225814 12.00053679 135.71193562 9.33984375 136.87890625 C8.39206055 137.29285645 7.44427734 137.70680664 6.46777344 138.13330078 C4.59623098 138.95077458 2.72575663 139.7706988 0.85644531 140.59326172 C0.00018555 140.96338379 -0.85607422 141.33350586 -1.73828125 141.71484375 C-2.50052002 142.04734131 -3.26275879 142.37983887 -4.0480957 142.72241211 C-6.0625 143.4375 -6.0625 143.4375 -9.0625 143.4375 C-9.77043701 141.69738647 -9.77043701 141.69738647 -10.49267578 139.92211914 C-22.05520221 111.4884199 -22.05520221 111.4884199 -33.9375 83.1875 C-39.51265468 70.1218311 -45.02433735 57.03035339 -50.49786377 43.92175293 C-51.41131266 41.73503004 -52.32581213 39.54874569 -53.24139404 37.36291504 C-54.52444543 34.2991097 -55.80374696 31.23376554 -57.08203125 28.16796875 C-57.46987289 27.24350449 -57.85771454 26.31904022 -58.25730896 25.36656189 C-58.61301468 24.51107254 -58.9687204 23.65558319 -59.33520508 22.77416992 C-59.64605545 22.02987228 -59.95690582 21.28557465 -60.2771759 20.51872253 C-61.03578228 18.50830581 -61.5877302 16.53128783 -62.0625 14.4375 C-56.9910466 12.31821714 -51.91901309 10.20033102 -46.84643555 8.08374023 C-45.12068907 7.36342161 -43.39510208 6.64272077 -41.66967773 5.92163086 C-39.19035954 4.8855511 -36.7104721 3.85084472 -34.23046875 2.81640625 C-33.07251045 2.33198814 -33.07251045 2.33198814 -31.89115906 1.83778381 C-22.44227323 -2.09949958 -9.88762198 -4.12424874 0 0 Z " fill="#FDFDFD" transform="translate(419.0625,618.5625)"/>
<path d="M0 0 C2.8125 2.4375 2.8125 2.4375 5 5 C5.63808594 5.73347656 6.27617188 6.46695313 6.93359375 7.22265625 C13.61942665 16.20871899 16.45959052 26.95526348 15 38 C13.75924424 44.97186572 9.53524678 49.75720214 4 54 C-3.06571683 57.93200348 -10.63310031 60.85873005 -18.1105957 63.91088867 C-20.32821945 64.81893663 -22.53996693 65.74042811 -24.75195312 66.66210938 C-26.16372106 67.24041756 -27.57581891 67.81792115 -28.98828125 68.39453125 C-29.6476619 68.67150345 -30.30704254 68.94847565 -30.98640442 69.23384094 C-35.65725187 71.11424938 -35.65725187 71.11424938 -39 70 C-40.33506025 67.30858243 -41.48332551 64.68583525 -42.58203125 61.8984375 C-42.91869308 61.0697818 -43.25535492 60.2411261 -43.60221863 59.38735962 C-44.68275626 56.72065427 -45.74775899 54.04804639 -46.8125 51.375 C-47.51787055 49.62719636 -48.22424013 47.87979554 -48.93164062 46.1328125 C-50.31397574 42.71394232 -51.68745501 39.291732 -53.05322266 35.86621094 C-54.30304698 32.73270455 -55.56733435 29.60591605 -56.84912109 26.48535156 C-57.1314006 25.79381989 -57.41368011 25.10228821 -57.70451355 24.38980103 C-58.45839343 22.54458307 -59.21670007 20.70117544 -59.9753418 18.85791016 C-61 16 -61 16 -61 13 C-13.55219137 -8.13659833 -13.55219137 -8.13659833 0 0 Z " fill="#FDFDFD" transform="translate(634,530)"/>
<path d="M0 0 C3.63733907 3.50766566 6.85163921 7.18284156 9.9375 11.1875 C10.40349609 11.78626953 10.86949219 12.38503906 11.34960938 13.00195312 C12.363327 14.30530436 13.37547621 15.60987667 14.38623047 16.91552734 C16.65626537 19.84768437 18.93410162 22.77375238 21.21118164 25.70043945 C22.41003793 27.24159237 23.60843825 28.78310008 24.80639648 30.32495117 C28.78442127 35.44405669 32.78152844 40.54759762 36.79223633 45.64111328 C42.89636112 53.40015418 48.94498479 61.20262055 55 69 C51.19884958 72.31814902 46.76586513 73.92345513 42.1484375 75.79296875 C41.29319489 76.14386063 40.43795227 76.4947525 39.55679321 76.85627747 C37.75416768 77.59438474 35.95037683 78.32965161 34.14550781 79.06225586 C31.37528983 80.18738229 28.60930979 81.32246304 25.84375 82.45898438 C24.0913873 83.17507036 22.33879104 83.8905851 20.5859375 84.60546875 C19.34062759 85.11632271 19.34062759 85.11632271 18.07015991 85.63749695 C17.30241241 85.9481459 16.53466492 86.25879486 15.74365234 86.57885742 C15.06732758 86.85404709 14.39100281 87.12923676 13.69418335 87.4127655 C12 88 12 88 10 88 C8.68278963 78.29820729 7.44584115 68.59195468 6.30859375 58.8671875 C6.158423 57.58748077 6.00825226 56.30777405 5.85353088 54.98928833 C5.53926341 52.30887752 5.22598556 49.6283532 4.91333008 46.94775391 C4.51702038 43.55139608 4.11722428 40.15545846 3.71656704 36.75961113 C3.32825631 33.4624071 2.94366832 30.16477102 2.55859375 26.8671875 C2.34607216 25.06977615 2.34607216 25.06977615 2.1292572 23.23605347 C1.2319926 15.50101384 0.54053213 7.76806804 0 0 Z " fill="#FCFDFD" transform="translate(814,456)"/>
</svg>
