<?xml version="1.0" encoding="UTF-8"?>
<svg width="1200pt" height="1200pt" version="1.1" viewBox="0 0 1200 1200" xmlns="http://www.w3.org/2000/svg" fill="#FFFFFF">
 <path d="m135.24 202.22h155.06v92.859h-155.06z"/>
 <path d="m317.39 202.22h155.29v92.859h-155.29z"/>
 <path d="m499.69 202.22h155.06v92.859h-155.06z"/>
 <path d="m865.45 274.45-37.219-85.219-142.08 62.391 37.312 84.984z"/>
 <path d="m742.69 380.76 142.08-62.391-8.3906-19.219-142.08 62.391z"/>
 <path d="m499.69 322.22h155.06v21h-155.06z"/>
 <path d="m317.39 322.22h155.29v21h-155.29z"/>
 <path d="m135.24 322.22h155.06v21h-155.06z"/>
 <path d="m499.69 699.14h155.06v21h-155.06z"/>
 <path d="m317.39 699.14h155.29v21h-155.29z"/>
 <path d="m135.24 699.14h155.06v21h-155.06z"/>
 <path d="m135.24 370.22h155.06v301.78h-155.06z"/>
 <path d="m317.39 370.22h155.29v301.78h-155.29z"/>
 <path d="m499.69 370.22h155.06v301.78h-155.06z"/>
 <path d="m894.24 725.86 141.98-62.25-8.4375-19.312-142.08 62.391z"/>
 <path d="m753.56 405.52 142.08-62.391 121.31 276.32-142.08 62.391z"/>
 <path d="m942.47 835.78 142.08-62.391-37.312-85.078-142.08 62.297z"/>
 <path d="m499.69 747.14h155.06v92.859h-155.06z"/>
 <path d="m317.39 747.14h155.29v92.859h-155.29z"/>
 <path d="m135.24 747.14h155.06v92.859h-155.06z"/>
 <path d="m0 867h1200v143.76h-1200z"/>
</svg>
